<svg width="85" height="28" viewBox="0 0 85 28" fill="none" xmlns="http://www.w3.org/2000/svg">
<path d="M8.89506 2.736C9.11106 2.088 9.56706 1.764 10.2631 1.764C10.9831 1.764 11.4631 2.1 11.7031 2.772L19.9831 26.028C20.0071 26.1 20.0191 26.184 20.0191 26.28C20.0191 26.76 19.7791 27 19.2991 27H18.8671C18.5551 27 18.3271 26.844 18.1831 26.532L10.3351 4.176L2.45106 26.532C2.30706 26.844 2.07906 27 1.76706 27H1.33506C0.855063 27 0.615063 26.76 0.615063 26.28C0.615063 26.184 0.627063 26.1 0.651063 26.028L8.89506 2.736ZM7.20306 15.912H13.4311C13.6231 15.912 13.7911 15.984 13.9351 16.128C14.0791 16.248 14.1511 16.416 14.1511 16.632V16.956C14.1511 17.172 14.0791 17.352 13.9351 17.496C13.7911 17.616 13.6231 17.676 13.4311 17.676H7.20306C6.74706 17.676 6.51906 17.436 6.51906 16.956V16.632C6.51906 16.152 6.74706 15.912 7.20306 15.912ZM23.6871 0.719999H23.9751C24.1671 0.719999 24.3351 0.791999 24.4791 0.935999C24.6231 1.056 24.6951 1.212 24.6951 1.404V10.728C25.9431 9.528 27.5031 8.928 29.3751 8.928C31.2471 8.928 32.7111 9.456 33.7671 10.512C34.8471 11.544 35.3871 12.996 35.3871 14.868V21.132C35.3871 23.028 34.8111 24.492 33.6591 25.524C32.5071 26.556 31.0071 27.072 29.1591 27.072C27.3111 27.072 25.8111 26.556 24.6591 25.524C23.5311 24.468 22.9671 23.004 22.9671 21.132V1.404C22.9671 1.212 23.0391 1.056 23.1831 0.935999C23.3271 0.791999 23.4951 0.719999 23.6871 0.719999ZM29.4471 10.656C27.3831 10.656 25.7991 11.388 24.6951 12.852V21.096C24.6951 22.464 25.1151 23.52 25.9551 24.264C26.7951 24.984 27.8631 25.344 29.1591 25.344C30.4551 25.344 31.5231 24.984 32.3631 24.264C33.2271 23.544 33.6591 22.488 33.6591 21.096V14.94C33.6591 13.548 33.2751 12.492 32.5071 11.772C31.7391 11.028 30.7191 10.656 29.4471 10.656ZM40.3169 14.868C40.3169 12.972 40.8929 11.508 42.0449 10.476C43.1969 9.444 44.6969 8.928 46.5449 8.928C48.3929 8.928 49.8809 9.456 51.0089 10.512C52.1369 11.544 52.7009 12.996 52.7009 14.868V21.132C52.7009 23.004 52.1369 24.468 51.0089 25.524C49.8809 26.556 48.3929 27.072 46.5449 27.072C44.7209 27.072 43.2209 26.556 42.0449 25.524C40.8929 24.468 40.3169 23.004 40.3169 21.132V14.868ZM51.0089 14.868C51.0089 13.5 50.5889 12.456 49.7489 11.736C48.9089 10.992 47.8409 10.62 46.5449 10.62C45.2489 10.62 44.1689 10.992 43.3049 11.736C42.4409 12.456 42.0089 13.5 42.0089 14.868V21.132C42.0089 22.5 42.4409 23.556 43.3049 24.3C44.1689 25.02 45.2489 25.38 46.5449 25.38C47.8409 25.38 48.9089 25.02 49.7489 24.3C50.5889 23.556 51.0089 22.5 51.0089 21.132V14.868ZM59.1775 8.928H59.4655C59.9455 8.928 60.1855 9.168 60.1855 9.648V21.024C60.1855 22.44 60.5335 23.508 61.2295 24.228C61.9495 24.948 62.9575 25.308 64.2535 25.308C65.5495 25.308 66.6655 24.792 67.6015 23.76C67.8175 23.496 68.0455 23.364 68.2855 23.364C68.7415 23.364 68.9695 23.628 68.9695 24.156C68.9695 24.372 68.9095 24.564 68.7895 24.732C68.3095 25.404 67.6375 25.956 66.7735 26.388C65.9095 26.796 64.9975 27 64.0375 27C62.3815 27 61.0375 26.484 60.0055 25.452C58.9975 24.396 58.4935 22.932 58.4935 21.06V9.648C58.4935 9.168 58.7215 8.928 59.1775 8.928ZM69.8335 9H70.1935C70.6495 9 70.8775 9.24 70.8775 9.72V22.788C70.8775 23.724 70.9495 24.372 71.0935 24.732C71.2615 25.068 71.5735 25.296 72.0295 25.416L72.4255 25.524C72.7855 25.596 72.9655 25.752 72.9655 25.992V26.388C72.9655 26.796 72.7255 27 72.2455 27C71.0695 27 70.2535 26.652 69.7975 25.956C69.3655 25.26 69.1495 24.192 69.1495 22.752V9.72C69.1495 9.24 69.3775 9 69.8335 9ZM77.9352 0.719999H78.2232C78.6792 0.719999 78.9072 0.947999 78.9072 1.404L78.7992 21.456C78.8232 22.68 79.1592 23.628 79.8072 24.3C80.4792 24.972 81.3552 25.308 82.4352 25.308H83.3352C83.5272 25.308 83.6832 25.38 83.8032 25.524C83.9472 25.668 84.0192 25.824 84.0192 25.992V26.28C84.0192 26.76 83.4792 27 82.3992 27C80.8152 27 79.5432 26.52 78.5832 25.56C77.6232 24.576 77.1312 23.22 77.1072 21.492L77.2152 1.404C77.2632 0.947999 77.5032 0.719999 77.9352 0.719999ZM75.1632 9H76.0272C76.2432 9 76.4112 9.072 76.5312 9.216C76.6752 9.36 76.7472 9.528 76.7472 9.72V9.936C76.7472 10.128 76.6752 10.296 76.5312 10.44C76.4112 10.584 76.2432 10.656 76.0272 10.656H75.1632C74.9472 10.656 74.7672 10.584 74.6232 10.44C74.5032 10.296 74.4432 10.128 74.4432 9.936V9.72C74.4432 9.528 74.5032 9.36 74.6232 9.216C74.7672 9.072 74.9472 9 75.1632 9ZM79.9872 9H82.6512C82.8432 9 82.9992 9.072 83.1192 9.216C83.2632 9.36 83.3352 9.528 83.3352 9.72V9.936C83.3352 10.128 83.2632 10.296 83.1192 10.44C82.9992 10.584 82.8432 10.656 82.6512 10.656H79.9872C79.7952 10.656 79.6272 10.584 79.4832 10.44C79.3392 10.296 79.2672 10.128 79.2672 9.936V9.72C79.2672 9.528 79.3392 9.36 79.4832 9.216C79.6272 9.072 79.7952 9 79.9872 9Z" fill="white"/>
</svg>
