<svg width="75" height="36" viewBox="0 0 75 36" fill="none" xmlns="http://www.w3.org/2000/svg">
<path d="M0.89975 1.8H1.25975C1.45175 1.8 1.61975 1.872 1.76375 2.016C1.90775 2.16 1.97975 2.328 1.97975 2.52V25.236H14.0038C14.4598 25.236 14.6878 25.476 14.6878 25.956V26.28C14.6878 26.472 14.6158 26.64 14.4718 26.784C14.3518 26.928 14.1958 27 14.0038 27H1.65575C0.67175 27 0.17975 26.484 0.17975 25.452V2.52C0.17975 2.328 0.25175 2.16 0.39575 2.016C0.53975 1.872 0.70775 1.8 0.89975 1.8ZM18.8286 14.868C18.8286 12.972 19.4046 11.508 20.5566 10.476C21.7086 9.444 23.2086 8.928 25.0566 8.928C26.9046 8.928 28.3926 9.456 29.5206 10.512C30.6486 11.544 31.2126 12.996 31.2126 14.868V21.132C31.2126 23.004 30.6486 24.468 29.5206 25.524C28.3926 26.556 26.9046 27.072 25.0566 27.072C23.2326 27.072 21.7326 26.556 20.5566 25.524C19.4046 24.468 18.8286 23.004 18.8286 21.132V14.868ZM29.5206 14.868C29.5206 13.5 29.1006 12.456 28.2606 11.736C27.4206 10.992 26.3526 10.62 25.0566 10.62C23.7606 10.62 22.6806 10.992 21.8166 11.736C20.9526 12.456 20.5206 13.5 20.5206 14.868V21.132C20.5206 22.5 20.9526 23.556 21.8166 24.3C22.6806 25.02 23.7606 25.38 25.0566 25.38C26.3526 25.38 27.4206 25.02 28.2606 24.3C29.1006 23.556 29.5206 22.5 29.5206 21.132V14.868ZM36.9692 14.904C36.9692 13.008 37.5452 11.544 38.6972 10.512C39.8492 9.48 41.3492 8.964 43.1972 8.964C45.0692 8.964 46.5572 9.48 47.6612 10.512C48.7892 11.544 49.3532 13.008 49.3532 14.904V29.736C49.3532 31.776 48.8132 33.324 47.7332 34.38C46.6532 35.46 45.2012 36 43.3772 36C41.5772 36 40.1252 35.496 39.0212 34.488C37.9172 33.48 37.3532 32.064 37.3292 30.24C37.3292 29.808 37.5572 29.592 38.0132 29.592H38.3012C38.7812 29.592 39.0212 29.808 39.0212 30.24C39.0692 31.56 39.4892 32.568 40.2812 33.264C41.0972 33.96 42.1412 34.308 43.4132 34.308C44.6852 34.308 45.7052 33.924 46.4732 33.156C47.2652 32.388 47.6612 31.236 47.6612 29.7V25.704C46.3652 26.64 44.8292 27.108 43.0532 27.108C41.3012 27.108 39.8492 26.592 38.6972 25.56C37.5452 24.528 36.9692 23.064 36.9692 21.168V14.904ZM47.6612 14.904C47.6612 13.536 47.2412 12.492 46.4012 11.772C45.5612 11.028 44.4812 10.656 43.1612 10.656C41.8652 10.656 40.7972 11.028 39.9572 11.772C39.1172 12.492 38.6972 13.548 38.6972 14.94V21.132C38.6972 22.5 39.1292 23.556 39.9932 24.3C40.8812 25.02 41.9252 25.38 43.1252 25.38C44.3492 25.38 45.3452 25.188 46.1132 24.804C46.9052 24.396 47.4212 23.952 47.6612 23.472V14.904ZM56.358 8.964H56.97C57.258 8.964 57.45 9.024 57.546 9.144C57.642 9.264 57.69 9.444 57.69 9.684V26.28C57.69 26.496 57.618 26.676 57.474 26.82C57.33 26.94 57.162 27 56.97 27H56.358C56.166 27 55.998 26.94 55.854 26.82C55.71 26.676 55.638 26.496 55.638 26.28V9.684C55.638 9.372 55.698 9.18 55.818 9.108C55.962 9.012 56.142 8.964 56.358 8.964ZM54.954 0.971998C55.194 0.755998 55.746 0.647998 56.61 0.647998C57.474 0.647998 58.038 0.767998 58.302 1.008C58.566 1.224 58.698 1.692 58.698 2.412V2.88C58.698 3.696 58.566 4.212 58.302 4.428C58.038 4.644 57.474 4.752 56.61 4.752C55.746 4.752 55.194 4.644 54.954 4.428C54.714 4.212 54.594 3.696 54.594 2.88V2.412C54.594 1.644 54.714 1.164 54.954 0.971998ZM57.438 2.52C57.438 2.28 57.378 2.124 57.258 2.052C57.162 1.956 56.946 1.908 56.61 1.908C56.298 1.908 56.094 1.944 55.998 2.016C55.902 2.088 55.854 2.256 55.854 2.52V2.88C55.854 3.144 55.902 3.312 55.998 3.384C56.094 3.456 56.31 3.492 56.646 3.492C56.982 3.492 57.198 3.456 57.294 3.384C57.39 3.312 57.438 3.144 57.438 2.88V2.52ZM69.3577 8.928C71.1577 8.928 72.5377 9.408 73.4977 10.368C74.4577 11.304 74.9377 12.684 74.9377 14.508V26.28C74.9377 26.76 74.7097 27 74.2537 27H73.9657C73.4857 27 73.2457 26.76 73.2457 26.28V14.904C73.2457 12.048 71.9377 10.62 69.3217 10.62C67.9537 10.62 66.7897 11.16 65.8297 12.24C65.5657 12.456 65.3377 12.564 65.1457 12.564C64.7137 12.564 64.4857 12.324 64.4617 11.844C64.4617 11.652 64.5097 11.46 64.6057 11.268C65.1097 10.572 65.7817 10.008 66.6217 9.576C67.4617 9.144 68.3737 8.928 69.3577 8.928ZM63.2737 9.036H63.5617C63.7537 9.036 63.9217 9.108 64.0657 9.252C64.2097 9.372 64.2817 9.54 64.2817 9.756V26.28C64.2817 26.496 64.2097 26.676 64.0657 26.82C63.9217 26.94 63.7537 27 63.5617 27H63.2737C63.0817 27 62.9137 26.94 62.7697 26.82C62.6257 26.676 62.5537 26.496 62.5537 26.28V9.756C62.5537 9.54 62.6257 9.372 62.7697 9.252C62.9137 9.108 63.0817 9.036 63.2737 9.036Z" fill="white"/>
</svg>
