<svg width="101" height="36" viewBox="0 0 101 36" fill="none" xmlns="http://www.w3.org/2000/svg">
<path d="M1.60483 1.8H1.96483C2.15683 1.8 2.32483 1.872 2.46883 2.016C2.61283 2.16 2.68483 2.328 2.68483 2.52V25.236H14.7088C15.1648 25.236 15.3928 25.476 15.3928 25.956V26.28C15.3928 26.472 15.3208 26.64 15.1768 26.784C15.0568 26.928 14.9008 27 14.7088 27H2.36083C1.37683 27 0.884828 26.484 0.884828 25.452V2.52C0.884828 2.328 0.956828 2.16 1.10083 2.016C1.24483 1.872 1.41283 1.8 1.60483 1.8ZM19.5337 14.868C19.5337 12.972 20.1097 11.508 21.2617 10.476C22.4137 9.444 23.9137 8.928 25.7617 8.928C27.6097 8.928 29.0977 9.456 30.2257 10.512C31.3537 11.544 31.9177 12.996 31.9177 14.868V21.132C31.9177 23.004 31.3537 24.468 30.2257 25.524C29.0977 26.556 27.6097 27.072 25.7617 27.072C23.9377 27.072 22.4377 26.556 21.2617 25.524C20.1097 24.468 19.5337 23.004 19.5337 21.132V14.868ZM30.2257 14.868C30.2257 13.5 29.8057 12.456 28.9657 11.736C28.1257 10.992 27.0577 10.62 25.7617 10.62C24.4657 10.62 23.3857 10.992 22.5217 11.736C21.6577 12.456 21.2257 13.5 21.2257 14.868V21.132C21.2257 22.5 21.6577 23.556 22.5217 24.3C23.3857 25.02 24.4657 25.38 25.7617 25.38C27.0577 25.38 28.1257 25.02 28.9657 24.3C29.8057 23.556 30.2257 22.5 30.2257 21.132V14.868ZM37.6743 14.904C37.6743 13.008 38.2503 11.544 39.4023 10.512C40.5543 9.48 42.0543 8.964 43.9023 8.964C45.7743 8.964 47.2623 9.48 48.3663 10.512C49.4943 11.544 50.0583 13.008 50.0583 14.904V29.736C50.0583 31.776 49.5183 33.324 48.4383 34.38C47.3583 35.46 45.9063 36 44.0823 36C42.2823 36 40.8303 35.496 39.7263 34.488C38.6223 33.48 38.0583 32.064 38.0343 30.24C38.0343 29.808 38.2623 29.592 38.7183 29.592H39.0063C39.4863 29.592 39.7263 29.808 39.7263 30.24C39.7743 31.56 40.1943 32.568 40.9863 33.264C41.8023 33.96 42.8463 34.308 44.1183 34.308C45.3903 34.308 46.4103 33.924 47.1783 33.156C47.9703 32.388 48.3663 31.236 48.3663 29.7V25.704C47.0703 26.64 45.5343 27.108 43.7583 27.108C42.0063 27.108 40.5543 26.592 39.4023 25.56C38.2503 24.528 37.6743 23.064 37.6743 21.168V14.904ZM48.3663 14.904C48.3663 13.536 47.9463 12.492 47.1063 11.772C46.2663 11.028 45.1863 10.656 43.8663 10.656C42.5703 10.656 41.5023 11.028 40.6623 11.772C39.8223 12.492 39.4023 13.548 39.4023 14.94V21.132C39.4023 22.5 39.8343 23.556 40.6983 24.3C41.5863 25.02 42.6303 25.38 43.8303 25.38C45.0543 25.38 46.0503 25.188 46.8183 24.804C47.6103 24.396 48.1263 23.952 48.3663 23.472V14.904ZM56.3071 14.868C56.3071 12.972 56.8831 11.508 58.0351 10.476C59.1871 9.444 60.6871 8.928 62.5351 8.928C64.3831 8.928 65.8711 9.456 66.9991 10.512C68.1271 11.544 68.6911 12.996 68.6911 14.868V21.132C68.6911 23.004 68.1271 24.468 66.9991 25.524C65.8711 26.556 64.3831 27.072 62.5351 27.072C60.7111 27.072 59.2111 26.556 58.0351 25.524C56.8831 24.468 56.3071 23.004 56.3071 21.132V14.868ZM66.9991 14.868C66.9991 13.5 66.5791 12.456 65.7391 11.736C64.8991 10.992 63.8311 10.62 62.5351 10.62C61.2391 10.62 60.1591 10.992 59.2951 11.736C58.4311 12.456 57.9991 13.5 57.9991 14.868V21.132C57.9991 22.5 58.4311 23.556 59.2951 24.3C60.1591 25.02 61.2391 25.38 62.5351 25.38C63.8311 25.38 64.8991 25.02 65.7391 24.3C66.5791 23.556 66.9991 22.5 66.9991 21.132V14.868ZM75.1677 8.928H75.4557C75.9357 8.928 76.1757 9.168 76.1757 9.648V21.024C76.1757 22.44 76.5237 23.508 77.2197 24.228C77.9397 24.948 78.9477 25.308 80.2437 25.308C81.5397 25.308 82.6557 24.792 83.5917 23.76C83.8077 23.496 84.0357 23.364 84.2757 23.364C84.7317 23.364 84.9597 23.628 84.9597 24.156C84.9597 24.372 84.8997 24.564 84.7797 24.732C84.2997 25.404 83.6277 25.956 82.7637 26.388C81.8997 26.796 80.9877 27 80.0277 27C78.3717 27 77.0277 26.484 75.9957 25.452C74.9877 24.396 74.4837 22.932 74.4837 21.06V9.648C74.4837 9.168 74.7117 8.928 75.1677 8.928ZM85.8237 9H86.1837C86.6397 9 86.8677 9.24 86.8677 9.72V22.788C86.8677 23.724 86.9397 24.372 87.0837 24.732C87.2517 25.068 87.5637 25.296 88.0197 25.416L88.4157 25.524C88.7757 25.596 88.9557 25.752 88.9557 25.992V26.388C88.9557 26.796 88.7157 27 88.2357 27C87.0597 27 86.2437 26.652 85.7877 25.956C85.3557 25.26 85.1397 24.192 85.1397 22.752V9.72C85.1397 9.24 85.3677 9 85.8237 9ZM93.9254 0.719999H94.2134C94.6694 0.719999 94.8974 0.947999 94.8974 1.404L94.7894 21.456C94.8134 22.68 95.1494 23.628 95.7974 24.3C96.4694 24.972 97.3454 25.308 98.4254 25.308H99.3254C99.5174 25.308 99.6734 25.38 99.7934 25.524C99.9374 25.668 100.009 25.824 100.009 25.992V26.28C100.009 26.76 99.4694 27 98.3894 27C96.8054 27 95.5334 26.52 94.5734 25.56C93.6134 24.576 93.1214 23.22 93.0974 21.492L93.2054 1.404C93.2534 0.947999 93.4934 0.719999 93.9254 0.719999ZM91.1534 9H92.0174C92.2334 9 92.4014 9.072 92.5214 9.216C92.6654 9.36 92.7374 9.528 92.7374 9.72V9.936C92.7374 10.128 92.6654 10.296 92.5214 10.44C92.4014 10.584 92.2334 10.656 92.0174 10.656H91.1534C90.9374 10.656 90.7574 10.584 90.6134 10.44C90.4934 10.296 90.4334 10.128 90.4334 9.936V9.72C90.4334 9.528 90.4934 9.36 90.6134 9.216C90.7574 9.072 90.9374 9 91.1534 9ZM95.9774 9H98.6414C98.8334 9 98.9894 9.072 99.1094 9.216C99.2534 9.36 99.3254 9.528 99.3254 9.72V9.936C99.3254 10.128 99.2534 10.296 99.1094 10.44C98.9894 10.584 98.8334 10.656 98.6414 10.656H95.9774C95.7854 10.656 95.6174 10.584 95.4734 10.44C95.3294 10.296 95.2574 10.128 95.2574 9.936V9.72C95.2574 9.528 95.3294 9.36 95.4734 9.216C95.6174 9.072 95.7854 9 95.9774 9Z" fill="white"/>
</svg>
