<svg width="110" height="28" viewBox="0 0 110 28" fill="none" xmlns="http://www.w3.org/2000/svg">
<path d="M1.97917 1.8H7.55917C9.23917 1.8 10.7872 2.256 12.2032 3.168C12.9472 3.648 13.5472 4.344 14.0032 5.256C14.4592 6.168 14.6872 7.248 14.6872 8.496C14.6872 10.392 14.1352 11.988 13.0312 13.284C11.9272 14.556 10.0072 15.192 7.27117 15.192H4.89517C4.67917 15.192 4.49917 15.12 4.35517 14.976C4.23517 14.832 4.17517 14.664 4.17517 14.472V14.148C4.17517 13.668 4.41517 13.428 4.89517 13.428H6.83917C9.45517 13.428 11.1472 12.876 11.9152 11.772C12.5632 10.86 12.8872 9.756 12.8872 8.46C12.8872 6.756 12.3352 5.52 11.2312 4.752C10.1512 3.984 8.86717 3.6 7.37917 3.6H2.19517V26.28C2.19517 26.472 2.12317 26.64 1.97917 26.784C1.83517 26.928 1.66717 27 1.47517 27H1.11517C0.923172 27 0.755172 26.928 0.611172 26.784C0.467172 26.64 0.395172 26.472 0.395172 26.28V3.384C0.395172 2.76 0.503172 2.34 0.719172 2.124C0.935172 1.908 1.35517 1.8 1.97917 1.8ZM25.0209 8.928C25.4769 8.928 25.7049 9.168 25.7049 9.648V9.9C25.7049 10.092 25.6329 10.26 25.4889 10.404C25.3689 10.548 25.2129 10.62 25.0209 10.62C23.6529 10.62 22.5609 10.968 21.7449 11.664C20.9289 12.36 20.5209 13.428 20.5209 14.868V26.28C20.5209 26.496 20.4489 26.676 20.3049 26.82C20.1609 26.94 19.9929 27 19.8009 27H19.5489C19.3569 27 19.1889 26.94 19.0449 26.82C18.9009 26.676 18.8289 26.496 18.8289 26.28V14.868C18.8289 12.9 19.3809 11.424 20.4849 10.44C21.5889 9.432 23.1009 8.928 25.0209 8.928ZM29.3774 14.868C29.3774 12.972 29.9534 11.508 31.1054 10.476C32.2574 9.444 33.7574 8.928 35.6054 8.928C37.4534 8.928 38.9414 9.456 40.0694 10.512C41.1974 11.544 41.7614 12.996 41.7614 14.868V21.132C41.7614 23.004 41.1974 24.468 40.0694 25.524C38.9414 26.556 37.4534 27.072 35.6054 27.072C33.7814 27.072 32.2814 26.556 31.1054 25.524C29.9534 24.468 29.3774 23.004 29.3774 21.132V14.868ZM40.0694 14.868C40.0694 13.5 39.6494 12.456 38.8094 11.736C37.9694 10.992 36.9014 10.62 35.6054 10.62C34.3094 10.62 33.2294 10.992 32.3654 11.736C31.5014 12.456 31.0694 13.5 31.0694 14.868V21.132C31.0694 22.5 31.5014 23.556 32.3654 24.3C33.2294 25.02 34.3094 25.38 35.6054 25.38C36.9014 25.38 37.9694 25.02 38.8094 24.3C39.6494 23.556 40.0694 22.5 40.0694 21.132V14.868ZM58.966 0.647998H59.398C59.83 0.647998 60.046 0.875998 60.046 1.332V21.132C60.046 23.004 59.47 24.468 58.318 25.524C57.19 26.556 55.702 27.072 53.854 27.072C52.006 27.072 50.506 26.556 49.354 25.524C48.202 24.492 47.626 23.028 47.626 21.132V14.868C47.626 13.02 48.202 11.58 49.354 10.548C50.506 9.516 52.006 9 53.854 9C54.622 9 55.438 9.144 56.302 9.432C57.19 9.72 57.862 10.044 58.318 10.404V1.332C58.318 0.875998 58.534 0.647998 58.966 0.647998ZM58.318 12.384C56.926 11.28 55.51 10.728 54.07 10.728C52.63 10.728 51.478 11.088 50.614 11.808C49.774 12.528 49.354 13.572 49.354 14.94V21.096C49.354 22.488 49.774 23.544 50.614 24.264C51.478 24.984 52.558 25.344 53.854 25.344C55.15 25.344 56.218 24.984 57.058 24.264C57.898 23.52 58.318 22.464 58.318 21.096V12.384ZM66.5896 8.928H66.8776C67.3576 8.928 67.5976 9.168 67.5976 9.648V21.024C67.5976 22.44 67.9456 23.508 68.6416 24.228C69.3616 24.948 70.3696 25.308 71.6656 25.308C72.9616 25.308 74.0776 24.792 75.0136 23.76C75.2296 23.496 75.4576 23.364 75.6976 23.364C76.1536 23.364 76.3816 23.628 76.3816 24.156C76.3816 24.372 76.3216 24.564 76.2016 24.732C75.7216 25.404 75.0496 25.956 74.1856 26.388C73.3216 26.796 72.4096 27 71.4496 27C69.7936 27 68.4496 26.484 67.4176 25.452C66.4096 24.396 65.9056 22.932 65.9056 21.06V9.648C65.9056 9.168 66.1336 8.928 66.5896 8.928ZM77.2456 9H77.6056C78.0616 9 78.2896 9.24 78.2896 9.72V22.788C78.2896 23.724 78.3616 24.372 78.5056 24.732C78.6736 25.068 78.9856 25.296 79.4416 25.416L79.8376 25.524C80.1976 25.596 80.3776 25.752 80.3776 25.992V26.388C80.3776 26.796 80.1376 27 79.6576 27C78.4816 27 77.6656 26.652 77.2096 25.956C76.7776 25.26 76.5616 24.192 76.5616 22.752V9.72C76.5616 9.24 76.7896 9 77.2456 9ZM83.7993 14.868C83.7993 12.972 84.3753 11.508 85.5273 10.476C86.6793 9.444 88.1793 8.928 90.0273 8.928C91.8753 8.928 93.3633 9.456 94.4913 10.512C95.6193 11.544 96.1833 12.996 96.1833 14.868C96.1833 15.324 95.9433 15.552 95.4633 15.552H95.1753C94.7193 15.552 94.4913 15.324 94.4913 14.868C94.4913 13.5 94.0713 12.456 93.2313 11.736C92.3913 11.016 91.3233 10.656 90.0273 10.656C88.7313 10.656 87.6513 11.028 86.7873 11.772C85.9473 12.492 85.5273 13.536 85.5273 14.904V21.096C85.5273 22.464 85.9473 23.52 86.7873 24.264C87.6513 24.984 88.7313 25.344 90.0273 25.344C91.3233 25.344 92.3793 24.996 93.1953 24.3C94.0353 23.58 94.4673 22.56 94.4913 21.24C94.4913 21.048 94.5513 20.88 94.6713 20.736C94.8153 20.592 94.9833 20.52 95.1753 20.52H95.4633C95.6793 20.52 95.8473 20.592 95.9673 20.736C96.1113 20.88 96.1833 21.048 96.1833 21.24C96.1353 23.064 95.5473 24.492 94.4193 25.524C93.2913 26.556 91.8153 27.072 89.9913 27.072C88.1913 27.072 86.7033 26.556 85.5273 25.524C84.3753 24.468 83.7993 23.004 83.7993 21.132V14.868ZM103.523 0.719999H103.811C104.267 0.719999 104.495 0.947999 104.495 1.404L104.387 21.456C104.411 22.68 104.747 23.628 105.395 24.3C106.067 24.972 106.943 25.308 108.023 25.308H108.923C109.115 25.308 109.271 25.38 109.391 25.524C109.535 25.668 109.607 25.824 109.607 25.992V26.28C109.607 26.76 109.067 27 107.987 27C106.403 27 105.131 26.52 104.171 25.56C103.211 24.576 102.719 23.22 102.695 21.492L102.803 1.404C102.851 0.947999 103.091 0.719999 103.523 0.719999ZM100.751 9H101.615C101.831 9 101.999 9.072 102.119 9.216C102.263 9.36 102.335 9.528 102.335 9.72V9.936C102.335 10.128 102.263 10.296 102.119 10.44C101.999 10.584 101.831 10.656 101.615 10.656H100.751C100.535 10.656 100.355 10.584 100.211 10.44C100.091 10.296 100.031 10.128 100.031 9.936V9.72C100.031 9.528 100.091 9.36 100.211 9.216C100.355 9.072 100.535 9 100.751 9ZM105.575 9H108.239C108.431 9 108.587 9.072 108.707 9.216C108.851 9.36 108.923 9.528 108.923 9.72V9.936C108.923 10.128 108.851 10.296 108.707 10.44C108.587 10.584 108.431 10.656 108.239 10.656H105.575C105.383 10.656 105.215 10.584 105.071 10.44C104.927 10.296 104.855 10.128 104.855 9.936V9.72C104.855 9.528 104.927 9.36 105.071 9.216C105.215 9.072 105.383 9 105.575 9Z" fill="white"/>
</svg>
