<svg width="117" height="50" viewBox="0 0 117 50" fill="none" xmlns="http://www.w3.org/2000/svg">
<path d="M28.5103 -3.33786e-06H29.2803C29.8403 -3.33786e-06 30.2136 0.186664 30.4003 0.559998C30.587 0.886663 30.6803 1.16666 30.6803 1.4C30.6803 1.63333 30.6103 1.86667 30.4703 2.1V2.03L18.6403 23.59C18.267 24.15 18.0103 24.5 17.8703 24.64V47.6C17.8703 47.9733 17.7303 48.3 17.4503 48.58C17.1703 48.86 16.8436 49 16.4703 49H15.7703C15.397 49 15.0703 48.86 14.7903 48.58C14.5103 48.3 14.3703 47.9733 14.3703 47.6V24.57C14.137 24.3367 13.927 24.0567 13.7403 23.73L1.00031 2.1C0.860312 1.86667 0.790312 1.63333 0.790312 1.4C0.790312 1.16666 0.883646 0.886663 1.07031 0.559998C1.25698 0.186664 1.63031 -3.33786e-06 2.19031 -3.33786e-06H3.03031C3.49698 -3.33786e-06 3.89365 0.209997 4.22031 0.629997L16.1203 21.07L27.3903 0.42C27.577 0.139998 27.9503 -3.33786e-06 28.5103 -3.33786e-06ZM65.1586 -3.33786e-06H65.8586C66.2319 -3.33786e-06 66.5586 0.139998 66.8386 0.42C67.1186 0.699999 67.2586 1.02667 67.2586 1.4V31.43C67.2586 34.79 66.6986 37.7067 65.5786 40.18C64.4586 42.6067 63.0119 44.4267 61.2386 45.64C57.9719 47.9267 54.6353 49.07 51.2286 49.07H50.3886C46.9819 49.07 43.5986 47.9267 40.2386 45.64C38.4653 44.4267 37.0186 42.6067 35.8986 40.18C34.8253 37.7067 34.2886 34.79 34.2886 31.43V1.4C34.2886 1.02667 34.4053 0.699999 34.6386 0.42C34.9186 0.139998 35.2686 -3.33786e-06 35.6886 -3.33786e-06H36.3886C36.8086 -3.33786e-06 37.1353 0.139998 37.3686 0.42C37.6486 0.699999 37.7886 1.02667 37.7886 1.4V31.43C37.7886 34.1833 38.2319 36.5633 39.1186 38.57C40.0053 40.53 41.1719 42 42.6186 42.98C45.1386 44.66 47.7753 45.5467 50.5286 45.64H51.1586C53.8186 45.5467 56.4319 44.6367 58.9986 42.91C60.3986 41.9767 61.5419 40.53 62.4286 38.57C63.3153 36.5633 63.7586 34.1833 63.7586 31.43V1.4C63.7586 1.02667 63.8753 0.699999 64.1086 0.42C64.3886 0.139998 64.7386 -3.33786e-06 65.1586 -3.33786e-06ZM103.345 -3.33786e-06H104.115C104.535 -3.33786e-06 104.885 0.139998 105.165 0.42C105.585 0.886666 105.632 1.42333 105.305 2.03L93.0552 24.01L106.215 46.97C106.355 47.25 106.425 47.5067 106.425 47.74C106.425 48.58 105.959 49 105.025 49H104.255C103.742 49 103.392 48.86 103.205 48.58L91.1652 27.51L80.5252 47.11C79.6852 48.51 78.7519 49.21 77.7252 49.21C75.9519 49.21 75.0652 48.2767 75.0652 46.41V1.4C75.0652 1.02667 75.1819 0.699999 75.4152 0.42C75.6952 0.139998 76.0452 -3.33786e-06 76.4652 -3.33786e-06H77.1652C77.5852 -3.33786e-06 77.9119 0.139998 78.1452 0.42C78.4252 0.699999 78.5652 1.02667 78.5652 1.4V43.4L92.4252 18.06L102.365 0.42C102.552 0.139998 102.879 -3.33786e-06 103.345 -3.33786e-06ZM114.496 -3.33786e-06H115.126C115.499 -3.33786e-06 115.826 0.139998 116.106 0.42C116.386 0.699999 116.526 1.02667 116.526 1.4V47.6C116.526 47.9733 116.386 48.3 116.106 48.58C115.826 48.86 115.499 49 115.126 49H114.496C114.076 49 113.726 48.86 113.446 48.58C113.213 48.3 113.096 47.9733 113.096 47.6V1.4C113.096 1.02667 113.213 0.699999 113.446 0.42C113.726 0.139998 114.076 -3.33786e-06 114.496 -3.33786e-06Z" fill="white"/>
</svg>
